<?xml version="1.0" standalone="no"?>
<!DOCTYPE svg PUBLIC "-//W3C//DTD SVG 20010904//EN"
 "http://www.w3.org/TR/2001/REC-SVG-20010904/DTD/svg10.dtd">
<svg version="1.0" xmlns="http://www.w3.org/2000/svg"
 width="798.000000pt" height="798.000000pt" viewBox="0 0 798.000000 798.000000"
 preserveAspectRatio="xMidYMid meet">
<metadata>
Created by potrace 1.14, written by Peter Selinger 2001-2017
</metadata>
<g transform="translate(0.000000,798.000000) scale(0.100000,-0.100000)"
fill="#000000" stroke="none">
<path d="M2193 7082 l-1793 -897 0 -2202 0 -2203 1780 -890 c979 -489 1791
-890 1805 -890 14 0 826 401 1805 890 l1780 890 0 2208 0 2207 -1785 893
c-982 490 -1788 892 -1793 891 -4 0 -814 -404 -1799 -897z m3235 -325 l1422
-712 -1430 -715 -1430 -715 -1430 715 -1430 715 1422 712 c783 392 1430 712
1438 712 8 0 655 -320 1438 -712z m-3143 -1794 l1475 -738 0 -462 0 -463
-1480 740 -1480 740 0 460 c0 253 2 460 5 460 3 0 669 -332 1480 -737z m4895
277 l0 -460 -440 -220 c-242 -121 -442 -220 -445 -220 -3 0 -5 10 -5 23 0 19
-19 32 -112 78 l-113 56 -227 -113 -228 -114 0 -138 0 -137 -695 -348 -695
-347 0 463 0 462 1473 737 c809 405 1475 737 1480 737 4 1 7 -206 7 -459z
m-3420 -3535 c0 -630 -2 -1145 -5 -1145 -3 0 -669 332 -1480 737 l-1475 738 0
1147 0 1148 1480 -740 1480 -740 0 -1145z m3420 1477 l0 -1147 -1475 -738
c-811 -405 -1477 -737 -1480 -737 -3 0 -5 515 -5 1145 l0 1145 690 345 c379
190 692 345 695 345 3 0 5 -144 5 -320 l0 -320 115 -57 115 -58 225 113 225
112 0 438 0 437 443 222 c243 122 443 222 445 222 1 1 2 -515 2 -1147z"/>
</g>
</svg>
